<svg xmlns="http://www.w3.org/2000/svg" viewBox="0 0 64 64" role="img" aria-label="Sandook Story">
  <rect width="64" height="64" rx="14" fill="#F6F0E8" />
  <rect x="9" y="28" width="46" height="24" rx="4" fill="#7A1E2C" />
  <path d="M15 28c2.6-8.8 9-14 17-14s14.4 5.2 17 14" fill="none" stroke="#7A1E2C" stroke-width="5" stroke-linecap="round" />
  <path d="M14 34h36M14 45h36" stroke="#C6A062" stroke-width="3" stroke-linecap="round" opacity="0.9" />
  <path d="M22 29v23M42 29v23" stroke="#C6A062" stroke-width="3" opacity="0.9" />
  <rect x="28" y="37" width="8" height="8" rx="1.8" fill="#F6F0E8" stroke="#C6A062" stroke-width="2" />
  <circle cx="32" cy="41" r="1.3" fill="#7A1E2C" />
  <path d="M12 23l3-2 3 2-3 2-3-2ZM46 21l2.5-1.7L51 21l-2.5 1.7L46 21Z" fill="#C6A062" />
</svg>
